<svg xmlns="http://www.w3.org/2000/svg" fill="none" viewBox="-2 -2 64 64" id="Car-Engine-11--Streamline-Ultimate.svg" height="64" width="64"><desc>Car Engine 11 Streamline Icon: https://streamlinehq.com</desc><path stroke="#000000" stroke-linecap="round" stroke-linejoin="round" d="M58.125 20.625c0 -1.326075 -0.52675 -2.5978499999999998 -1.4645 -3.535525 -0.93775 -0.9377000000000001 -2.2095000000000002 -1.4644750000000002 -3.5355 -1.4644750000000002 -0.3315 0 -0.6495 0.13169999999999998 -0.8840000000000001 0.366125 -0.23425 0.2344 -0.366 0.55235 -0.366 0.883875v3.75h-7.5v-5c0 -0.331525 -0.13174999999999998 -0.649475 -0.366 -0.883875 -0.2345 -0.23442500000000002 -0.5525 -0.366125 -0.8840000000000001 -0.366125h-3.75l-3.75 -5h-16.25l-3.75 3.75h-5c-0.331525 0 -0.649475 0.13169999999999998 -0.883875 0.366125 -0.23442500000000002 0.2344 -0.366125 0.55235 -0.366125 0.883875v17.5c0 0.3315 0.13169999999999998 0.6495 0.366125 0.8840000000000001 0.2344 0.23425 0.55235 0.366 0.883875 0.366h5l5 8.75H27.5" stroke-width="4"></path><path stroke="#000000" stroke-linecap="round" stroke-linejoin="round" d="M29.375 9.375v-7.5" stroke-width="4"></path><path stroke="#000000" stroke-linecap="round" stroke-linejoin="round" d="M38.125 1.875h-17.5" stroke-width="4"></path><path stroke="#000000" stroke-linecap="round" stroke-linejoin="round" d="M1.875 13.125v20" stroke-width="4"></path><path stroke="#000000" stroke-linecap="round" stroke-linejoin="round" d="M1.875 23.125h7.5" stroke-width="4"></path><path stroke="#000000" stroke-linecap="round" stroke-linejoin="round" d="M54.9625 29.185c0.06475 -0.10500000000000001 0.1005 -0.22525 0.10325000000000001 -0.34875 0.0029999999999999996 -0.12325 -0.027000000000000003 -0.24525000000000002 -0.08675000000000001 -0.35325 -0.06 -0.10775 -0.1475 -0.198 -0.2535 -0.26075000000000004 -0.10625000000000001 -0.063 -0.22724999999999998 -0.0965 -0.3505 -0.09724999999999999h-13.75c-0.36025 0 -0.7105 0.11725 -0.998 0.33425000000000005 -0.28725 0.217 -0.496 0.5217499999999999 -0.5945 0.86825l-3.97 13.892500000000002c-0.0805 0.28075 -0.09475 0.57625 -0.041749999999999995 0.86325 0.05325 0.28725 0.17250000000000001 0.558 0.34825 0.79125s0.40325 0.42250000000000004 0.6645 0.5525c0.2615 0.13025 0.5495 0.198 0.8415 0.198h5l-3.75 12.5 19.43 -18.2875c0.14 -0.138 0.23650000000000002 -0.31399999999999995 0.27699999999999997 -0.5065 0.040499999999999994 -0.1925 0.0235 -0.3925 -0.049 -0.57525 -0.07275000000000001 -0.18275 -0.1975 -0.34 -0.359 -0.45225000000000004 -0.1615 -0.11225 -0.3525 -0.17425 -0.5489999999999999 -0.17850000000000002h-7.5l5.5874999999999995 -8.94Z" stroke-width="4"></path></svg>