<svg xmlns="http://www.w3.org/2000/svg" viewBox="-0.5 -0.5 64 64" id="Computer--Streamline-Font-Awesome.svg" height="64" width="64"><desc>Computer Streamline Icon: https://streamlinehq.com</desc><!--! Font Awesome Free 6.5.2 by @fontawesome - https://fontawesome.com License - https://fontawesome.com/license/free (Icons: CC BY 4.0, Fonts: SIL OFL 1.1, Code: MIT License) Copyright 2024 Fonticons, Inc.--><path d="M37.67400000000001 16.065v21.609H6.804000000000001V16.065h30.870000000000005Zm-30.870000000000005 -6.174c-3.4053468750000007 0 -6.174 2.7686531250000006 -6.174 6.174v21.609c0 3.4053468750000007 2.7686531250000006 6.174 6.174 6.174h11.315784375l-1.032215625 3.087H9.891000000000002c-1.7074968750000001 0 -3.087 1.379503125 -3.087 3.087s1.379503125 3.087 3.087 3.087h24.696c1.7074968750000001 0 3.087 -1.379503125 3.087 -3.087s-1.379503125 -3.087 -3.087 -3.087h-7.206215625000001l-1.032215625 -3.087H37.67400000000001c3.4053468750000007 0 6.174 -2.7686531250000006 6.174 -6.174V16.065c0 -3.4053468750000007 -2.7686531250000006 -6.174 -6.174 -6.174H6.804000000000001Zm44.761500000000005 0c-2.5564218750000003 0 -4.6305000000000005 2.074078125 -4.6305000000000005 4.6305000000000005v33.957c0 2.5564218750000003 2.074078125 4.6305000000000005 4.6305000000000005 4.6305000000000005h6.174c2.5564218750000003 0 4.6305000000000005 -2.074078125 4.6305000000000005 -4.6305000000000005V14.521500000000003c0 -2.5564218750000003 -2.074078125 -4.6305000000000005 -4.6305000000000005 -4.6305000000000005h-6.174Zm1.5435 6.174h3.087c0.8489250000000002 0 1.5435 0.694575 1.5435 1.5435s-0.694575 1.5435 -1.5435 1.5435h-3.087c-0.8489250000000002 0 -1.5435 -0.694575 -1.5435 -1.5435s0.694575 -1.5435 1.5435 -1.5435Zm-1.5435 7.717500000000001c0 -0.8489250000000002 0.694575 -1.5435 1.5435 -1.5435h3.087c0.8489250000000002 0 1.5435 0.694575 1.5435 1.5435s-0.694575 1.5435 -1.5435 1.5435h-3.087c-0.8489250000000002 0 -1.5435 -0.694575 -1.5435 -1.5435Zm3.087 15.435000000000002c2.37636984375 -0.00010828125000000002 3.8615850000000003 2.5723293750000003 2.6734935937500004 4.630381875 -0.5514271875000001 0.9551882812500001 -1.5705703125000001 1.5436181250000003 -2.6734935937500004 1.5436181250000003 -2.37636984375 0 -3.8616046875000003 -2.57249671875 -2.6734246875000003 -4.6305000000000005 0.5514468750000001 -0.9551193750000001 1.5705506250000003 -1.5435 2.6734246875000003 -1.5435Z" stroke-width="1"></path></svg>