<svg xmlns="http://www.w3.org/2000/svg" fill="none" viewBox="0 0 64 64" id="Cpu--Streamline-Solar.svg" height="64" width="64"><desc>CPU Streamline Icon: https://streamlinehq.com</desc><g id="Bold Duotone/Electronic Devices/CPU"><path id="Vector" fill="#737373" d="M23.159466666666663 23.1592C23.325866666666663 22.992799999999995 23.6232 22.786666666666665 24.572266666666668 22.6592C25.584266666666664 22.523199999999996 26.9576 22.5184 29.0824 22.5184H34.916799999999995C37.041066666666666 22.5184 38.41466666666666 22.523199999999996 39.42666666666666 22.6592C40.37573333333333 22.786666666666665 40.673066666666664 22.992799999999995 40.83946666666667 23.1592C41.00613333333333 23.325866666666663 41.211999999999996 23.623466666666666 41.33973333333333 24.572533333333332C41.47573333333333 25.584533333333333 41.48053333333333 26.9576 41.48053333333333 29.0824V34.916799999999995C41.48053333333333 37.041066666666666 41.47573333333333 38.41466666666666 41.33973333333333 39.42666666666666C41.211999999999996 40.37573333333333 41.00586666666666 40.673066666666664 40.83946666666667 40.83946666666667C40.673066666666664 41.00613333333333 40.37573333333333 41.211999999999996 39.42666666666666 41.33973333333333C38.41466666666666 41.47573333333333 37.041066666666666 41.48053333333333 34.916799999999995 41.48053333333333H29.0824C26.9576 41.48053333333333 25.584266666666664 41.47573333333333 24.572266666666668 41.33973333333333C23.6232 41.211999999999996 23.325866666666663 41.00613333333333 23.159466666666663 40.83946666666667C22.992799999999995 40.673066666666664 22.786666666666665 40.37573333333333 22.6592 39.42666666666666C22.523199999999996 38.41466666666666 22.5184 37.041066666666666 22.5184 34.916799999999995V29.0824C22.5184 26.9576 22.523199999999996 25.584533333333333 22.6592 24.572533333333332C22.786666666666665 23.623466666666666 22.992799999999995 23.325866666666663 23.159466666666663 23.1592Z" stroke-width="1"></path><path id="Vector_2" fill="#000" fill-rule="evenodd" d="M32 0.6399999999999999C33.20826666666666 0.6399999999999999 34.187999999999995 1.6194666666666664 34.187999999999995 2.828V11.581066666666667C35.78959999999999 11.584266666666666 37.242399999999996 11.595466666666667 38.56426666666667 11.631466666666665L38.56373333333333 11.579466666666665V2.828C38.56373333333333 1.6197333333333335 39.54346666666666 0.6399999999999999 40.751733333333334 0.6399999999999999S42.93973333333333 1.6197333333333335 42.93973333333333 2.828V11.579466666666665C42.93973333333333 11.694133333333333 42.93093333333333 11.806399999999998 42.913866666666664 11.916266666666667C45.849333333333334 12.276799999999998 47.883199999999995 13.023466666666666 49.42986666666667 14.570133333333333C50.97653333333333 16.116799999999998 51.7232 18.150933333333334 52.084 21.086133333333333C52.1936 21.069333333333333 52.30586666666666 21.060533333333332 52.420533333333324 21.060533333333332H61.172C62.38026666666667 21.060533333333332 63.36 22.04 63.36 23.24853333333333C63.36 24.4568 62.38026666666667 25.436533333333333 61.172 25.436533333333333H52.420533333333324L52.36826666666667 25.43573333333333C52.4048 26.7576 52.41733333333333 28.2104 52.420533333333324 29.812H61.172C62.38026666666667 29.812 63.36 30.791733333333333 63.36 32S62.38026666666667 34.187999999999995 61.172 34.187999999999995H52.4192C52.41573333333333 35.78959999999999 52.4048 37.242399999999996 52.36826666666667 38.56426666666667L52.420533333333324 38.56373333333333H61.172C62.38026666666667 38.56373333333333 63.36 39.54346666666666 63.36 40.751733333333334S62.38026666666667 42.93973333333333 61.172 42.93973333333333H52.420533333333324C52.30586666666666 42.93973333333333 52.1936 42.93093333333333 52.084 42.91413333333333C51.7232 45.849333333333334 50.97653333333333 47.883199999999995 49.42986666666667 49.42986666666667C47.883199999999995 50.97653333333333 45.849333333333334 51.7232 42.913866666666664 52.084C42.93093333333333 52.193866666666665 42.93973333333333 52.30586666666666 42.93973333333333 52.420533333333324V61.172C42.93973333333333 62.38026666666667 41.959999999999994 63.36 40.751733333333334 63.36S38.56373333333333 62.38026666666667 38.56373333333333 61.172V52.420533333333324L38.56426666666667 52.36826666666667C37.242399999999996 52.4048 35.78959999999999 52.41733333333333 34.187999999999995 52.420533333333324V61.172C34.187999999999995 62.38026666666667 33.20826666666666 63.36 32 63.36S29.812 62.38026666666667 29.812 61.172V52.4192C28.2104 52.41573333333333 26.7576 52.4048 25.43573333333333 52.36826666666667L25.43626666666667 52.420533333333324V61.172C25.43626666666667 62.38026666666667 24.4568 63.36 23.248266666666666 63.36C22.04 63.36 21.060533333333332 62.38026666666667 21.060533333333332 61.172V52.420533333333324C21.060533333333332 52.30586666666666 21.069333333333333 52.1936 21.086133333333333 52.084C18.150933333333334 51.7232 16.116799999999998 50.97653333333333 14.570133333333333 49.42986666666667C13.023466666666666 47.883199999999995 12.276799999999998 45.849333333333334 11.915999999999999 42.913866666666664C11.806399999999998 42.93093333333333 11.693866666666667 42.93973333333333 11.579466666666665 42.93973333333333H2.828C1.6194666666666664 42.93973333333333 0.6399999999999999 41.959999999999994 0.6399999999999999 40.751733333333334S1.6194666666666664 38.56373333333333 2.828 38.56373333333333H11.579466666666665L11.631466666666665 38.56426666666667C11.595466666666667 37.242399999999996 11.582933333333333 35.78959999999999 11.579466666666665 34.187999999999995H2.828C1.6194666666666664 34.187999999999995 0.6399999999999999 33.20826666666666 0.6399999999999999 32S1.6194666666666664 29.812 2.828 29.812H11.581066666666667C11.584266666666666 28.2104 11.595466666666667 26.7576 11.631466666666665 25.43573333333333L11.579466666666665 25.43626666666667H2.828C1.6194666666666664 25.43626666666667 0.6399999999999999 24.4568 0.6399999999999999 23.248266666666666C0.6399999999999999 22.04 1.6194666666666664 21.060533333333332 2.828 21.060533333333332H11.579466666666665C11.693866666666667 21.060533333333332 11.806399999999998 21.069333333333333 11.915999999999999 21.086133333333333C12.276533333333333 18.150933333333334 13.023466666666666 16.116799999999998 14.570133333333333 14.570133333333333C16.116799999999998 13.023466666666666 18.150933333333334 12.276799999999998 21.086133333333333 11.915999999999999C21.069333333333333 11.806399999999998 21.060533333333332 11.693866666666667 21.060533333333332 11.579466666666665V2.828C21.060533333333332 1.6194666666666664 22.04 0.6399999999999999 23.248266666666666 0.6399999999999999C24.4568 0.6399999999999999 25.43626666666667 1.6194666666666664 25.43626666666667 2.828V11.579466666666665L25.43573333333333 11.631466666666665C26.7576 11.595466666666667 28.2104 11.582933333333333 29.812 11.579466666666665V2.828C29.812 1.6194666666666664 30.791733333333333 0.6399999999999999 32 0.6399999999999999ZM28.938666666666666 18.1432C26.999466666666667 18.1432 25.327999999999996 18.1432 23.989866666666664 18.32293333333333C22.55573333333333 18.51573333333333 21.180799999999998 18.950666666666663 20.065866666666665 20.065866666666665C18.950666666666663 21.180799999999998 18.51573333333333 22.55573333333333 18.32293333333333 23.989866666666664C18.142933333333332 25.328266666666668 18.1432 26.999466666666667 18.1432 28.938666666666666V35.06133333333333C18.1432 37.0008 18.142933333333332 38.672 18.32293333333333 40.0104C18.51573333333333 41.44453333333333 18.950666666666663 42.8192 20.065866666666665 43.9344S22.55573333333333 45.48426666666666 23.989866666666664 45.67706666666667C25.327999999999996 45.85706666666667 26.999466666666667 45.8568 28.938666666666666 45.8568H35.06133333333333C37.0008 45.8568 38.67173333333333 45.85706666666667 40.0104 45.67706666666667C41.444266666666664 45.48426666666666 42.8192 45.0496 43.9344 43.9344C45.0496 42.8192 45.48426666666666 41.44453333333333 45.67706666666667 40.0104C45.85706666666667 38.672 45.8568 37.0008 45.8568 35.06133333333333V28.938666666666666C45.8568 26.999466666666667 45.85706666666667 25.328266666666668 45.67706666666667 23.989866666666664C45.48426666666666 22.55573333333333 45.0496 21.180799999999998 43.9344 20.065866666666665C42.8192 18.950666666666663 41.44453333333333 18.51573333333333 40.0104 18.32293333333333C38.67173333333333 18.1432 37.00106666666667 18.1432 35.06133333333333 18.1432H28.938666666666666Z" clip-rule="evenodd" stroke-width="1"></path></g></svg>