<svg viewBox="-2 -2 64 64" fill="none" xmlns="http://www.w3.org/2000/svg" id="Cpu-Bolt--Streamline-Solar-Ar.svg" height="64" width="64"><desc>CPU Bolt Streamline Icon: https://streamlinehq.com</desc><path d="M16.325499999999998 24.53025C16.325499999999998 20.6625 16.325499999999998 18.72875 17.527 17.527C18.72875 16.325499999999998 20.6625 16.325499999999998 24.53025 16.325499999999998H35.469750000000005C39.3375 16.325499999999998 41.27125 16.325499999999998 42.473 17.527C43.674499999999995 18.72875 43.674499999999995 20.6625 43.674499999999995 24.53025V35.469750000000005C43.674499999999995 39.3375 43.674499999999995 41.27125 42.473 42.473C41.27125 43.674499999999995 39.3375 43.674499999999995 35.469750000000005 43.674499999999995H24.53025C20.6625 43.674499999999995 18.72875 43.674499999999995 17.527250000000002 42.473C16.325499999999998 41.27125 16.325499999999998 39.3375 16.325499999999998 35.469750000000005V24.53025Z" stroke="#000000" stroke-width="4"></path><path d="M31.17225 24.53025L27.265 30H32.735L28.82775 35.469750000000005" stroke="#000000" stroke-linecap="round" stroke-linejoin="round" stroke-width="4"></path><path d="M8.121 30C8.121 19.686 8.121 14.529250000000001 11.325000000000001 11.325000000000001C14.529250000000001 8.121 19.686 8.121 30 8.121C40.31375 8.121 45.471000000000004 8.121 48.674749999999996 11.325000000000001C51.879 14.529250000000001 51.879 19.686 51.879 30C51.879 40.31375 51.879 45.471000000000004 48.674749999999996 48.674749999999996C45.471000000000004 51.879 40.31375 51.879 30 51.879C19.686 51.879 14.529250000000001 51.879 11.325000000000001 48.674749999999996C8.121 45.471000000000004 8.121 40.31375 8.121 30Z" stroke="#000000" stroke-width="4"></path><path d="M8.121 30H2.65125" stroke="#000000" stroke-linecap="round" stroke-width="4"></path><path d="M57.348749999999995 30H51.879" stroke="#000000" stroke-linecap="round" stroke-width="4"></path><path d="M8.121 21.79525H2.65125" stroke="#000000" stroke-linecap="round" stroke-width="4"></path><path d="M57.348749999999995 21.79525H51.879" stroke="#000000" stroke-linecap="round" stroke-width="4"></path><path d="M8.121 38.204750000000004H2.65125" stroke="#000000" stroke-linecap="round" stroke-width="4"></path><path d="M57.348749999999995 38.204750000000004H51.879" stroke="#000000" stroke-linecap="round" stroke-width="4"></path><path d="M30 51.879V57.348749999999995" stroke="#000000" stroke-linecap="round" stroke-width="4"></path><path d="M30 2.65125V8.121" stroke="#000000" stroke-linecap="round" stroke-width="4"></path><path d="M21.79525 51.879V57.348749999999995" stroke="#000000" stroke-linecap="round" stroke-width="4"></path><path d="M21.79525 2.65125V8.121" stroke="#000000" stroke-linecap="round" stroke-width="4"></path><path d="M38.204750000000004 51.879V57.348749999999995" stroke="#000000" stroke-linecap="round" stroke-width="4"></path><path d="M38.204750000000004 2.65125V8.121" stroke="#000000" stroke-linecap="round" stroke-width="4"></path></svg>