<svg xmlns="http://www.w3.org/2000/svg" viewBox="-2 -2 64 64" fill="none" stroke="#000000" stroke-linecap="round" stroke-linejoin="round" id="Drill--Streamline-Lucide.svg" height="64" width="64"><desc>Drill Streamline Icon: https://streamlinehq.com</desc><path d="M36.68175 21.981749999999998C36.68175 23.585500000000003 35.612750000000005 24.654500000000002 34.009 24.654500000000002H9.9545C7.00225 24.65475 4.609 22.2615 4.609 19.309V8.61825C4.609 5.666 7.00225 3.27275 9.9545 3.27275H34.009C35.612750000000005 3.27275 36.68175 4.341749999999999 36.68175 5.9455Z" stroke-width="4"></path><path d="M47.37275 13.96375H58.06375" stroke-width="4"></path><path d="M36.68175 8.61825H44.699999999999996C46.176 8.61825 47.37275 9.81475 47.37275 11.291V16.63625C47.37275 18.1125 46.176 19.309 44.699999999999996 19.309H36.68175" stroke-width="4"></path><path d="M12.62725 24.654500000000002L7.281750000000001 46.03625" stroke-width="4"></path><path d="M31.33625 24.654500000000002V32.67275C31.33625 34.27625 30.267249999999997 35.3455 28.66375 35.3455H20.645500000000002" stroke-width="4"></path><path d="M17.972749999999998 46.03625L23.31825 24.654500000000002" stroke-width="4"></path><path d="M12.62725 56.72725C8.08375 56.72725 4.609 53.252750000000006 4.609 48.708999999999996C4.609 47.10549999999999 5.67825 46.03625 7.281750000000001 46.03625H25.991C27.594500000000004 46.03625 28.66375 47.10549999999999 28.66375 48.708999999999996V54.054500000000004C28.66375 55.65825 27.594500000000004 56.72725 25.991 56.72725Z" stroke-width="4"></path></svg>