<svg xmlns="http://www.w3.org/2000/svg" viewBox="0 0 64 64" id="Electronics-Led-Light--Streamline-Ultimate.svg" height="64" width="64"><desc>Electronics Led Light Streamline Icon: https://streamlinehq.com</desc><path d="M50.666666666666664 36h-0.6666666666666666a0.6666666666666666 0.6666666666666666 0 0 1 -0.6666666666666666 -0.6666666666666666V17.333333333333332a17.333333333333332 17.333333333333332 0 0 0 -34.666666666666664 0v18a0.6666666666666666 0.6666666666666666 0 0 1 -0.6666666666666666 0.6666666666666666H13.333333333333332a2.6666666666666665 2.6666666666666665 0 0 0 0 5.333333333333333h7.333333333333333a0.6666666666666666 0.6666666666666666 0 0 1 0.6666666666666666 0.6666666666666666V61.33333333333333a2.6666666666666665 2.6666666666666665 0 0 0 5.333333333333333 0v-19.333333333333332a0.6666666666666666 0.6666666666666666 0 0 1 0.6666666666666666 -0.6666666666666666h9.333333333333332a0.6666666666666666 0.6666666666666666 0 0 1 0.6666666666666666 0.6666666666666666V61.33333333333333a2.6666666666666665 2.6666666666666665 0 0 0 5.333333333333333 0v-19.333333333333332a0.6666666666666666 0.6666666666666666 0 0 1 0.6666666666666666 -0.6666666666666666H50.666666666666664a2.6666666666666665 2.6666666666666665 0 0 0 0 -5.333333333333333Zm-25.41333333333333 -16a2 2 0 0 1 2.8266666666666667 -2.8266666666666667l3.44 3.44a0.6666666666666666 0.6666666666666666 0 0 0 0.96 0l3.44 -3.44a2 2 0 0 1 2.8266666666666667 2.8266666666666667l-4.56 4.64a0.6933333333333334 0.6933333333333334 0 0 0 -0.18666666666666668 0.45333333333333337v10.239999999999998a0.6666666666666666 0.6666666666666666 0 0 1 -0.6666666666666666 0.6666666666666666h-2.6666666666666665a0.6666666666666666 0.6666666666666666 0 0 1 -0.6666666666666666 -0.6666666666666666V25.093333333333334a0.6933333333333334 0.6933333333333334 0 0 0 -0.18666666666666668 -0.45333333333333337Z" fill="#000000" stroke-width="1"></path></svg>