<svg xmlns="http://www.w3.org/2000/svg" fill="none" viewBox="-2 -2 64 64" id="Factory-Industrial-Robot-Arm-1--Streamline-Ultimate.svg" height="64" width="64"><desc>Factory Industrial Robot Arm 1 Streamline Icon: https://streamlinehq.com</desc><path stroke="#000000" stroke-linecap="round" stroke-linejoin="round" d="m23.1251 47.190000000000005 -16.279999999999998 -11.705000000000002" stroke-width="4"></path><path stroke="#000000" stroke-linecap="round" stroke-linejoin="round" d="m14.349974999999999 28.802500000000002 12.857525 9.5325" stroke-width="4"></path><path stroke="#000000" stroke-linecap="round" stroke-linejoin="round" d="M1.8774425 29.377499999999998c0 1.6575000000000002 0.6584825 3.2472499999999997 1.8305825 4.4195 1.1721 1.172 2.761825 1.8304999999999998 4.419425 1.8304999999999998 1.6576 0 3.2473 -0.6585000000000001 4.4193999999999996 -1.8304999999999998 1.1721 -1.17225 1.8306 -2.762 1.8306 -4.4195s-0.6585000000000001 -3.2472499999999997 -1.8306 -4.4193999999999996c-1.1721 -1.1721 -2.7618 -1.830575 -4.4193999999999996 -1.830575 -1.6576 0 -3.247325 0.658475 -4.419425 1.830575C2.5359249999999998 26.13025 1.8774425 27.72 1.8774425 29.377499999999998Z" stroke-width="4"></path><path stroke="#000000" stroke-linecap="round" stroke-linejoin="round" d="M14.092400000000001 27.512500000000003 28.119999999999997 13.850024999999999" stroke-width="4"></path><path stroke="#000000" stroke-linecap="round" stroke-linejoin="round" d="M25.979999999999997 3.9450000000000003 3.1424000000000003 25.625" stroke-width="4"></path><path stroke="#000000" stroke-linecap="round" stroke-linejoin="round" d="M24.37255 8.125c0 1.6576 0.65845 3.247325 1.8307000000000002 4.419425 1.172 1.1721 2.76175 1.830575 4.41925 1.830575 1.65775 0 3.2472499999999997 -0.658475 4.4195 -1.830575 1.172 -1.1721 1.8304999999999998 -2.761825 1.8304999999999998 -4.419425 0 -1.6576 -0.6585000000000001 -3.247325 -1.8304999999999998 -4.419425C33.86975 2.533475 32.28025 1.875 30.622500000000002 1.875c-1.6575000000000002 0 -3.2472499999999997 0.658475 -4.41925 1.830575 -1.17225 1.1721 -1.8307000000000002 2.761825 -1.8307000000000002 4.419425Z" stroke-width="4"></path><path stroke="#000000" stroke-linecap="round" stroke-linejoin="round" d="m40.735 18.455025 -5.75 -5.875" stroke-width="4"></path><path stroke="#000000" stroke-linecap="round" stroke-linejoin="round" d="M39.375 21.877525000000002c0 1.326075 0.52675 2.5978499999999998 1.4645 3.535475 0.93775 0.93775 2.2095000000000002 1.4645 3.5355 1.4645 1.326 0 2.5977499999999996 -0.52675 3.5355 -1.4645 0.93775 -0.9376249999999999 1.4645 -2.2094 1.4645 -3.535475 0 -1.3261 -0.52675 -2.5978499999999998 -1.4645 -3.53555 -0.93775 -0.937675 -2.2095000000000002 -1.4644499999999998 -3.5355 -1.4644499999999998 -1.326 0 -2.5977499999999996 0.526775 -3.5355 1.4644499999999998 -0.93775 0.9377000000000001 -1.4645 2.20945 -1.4645 3.53555Z" stroke-width="4"></path><path stroke="#000000" stroke-linecap="round" stroke-linejoin="round" d="M49.25 20.75c1.08325 -0.202425 2.19775 -0.1636 3.26425 0.113675 1.06675 0.277275 2.059 0.7862 2.90675 1.4905499999999998 0.8475 0.704375 1.5295 1.5868499999999999 1.9972500000000002 2.5846999999999998 0.46775 0.997825 0.70975 2.086575 0.7090000000000001 3.188575" stroke-width="4"></path><path stroke="#000000" stroke-linecap="round" stroke-linejoin="round" d="M50.62525 35.6275c-1.102 0.0005 -2.19025 -0.242 -3.18775 -0.71 -0.99775 -0.46775 -1.87975 -1.14975 -2.584 -1.9975 -0.7040000000000001 -0.8475 -1.21275 -1.83975 -1.48975 -2.906 -0.27725 -1.0665 -0.31600000000000006 -2.181 -0.1135 -3.2640000000000002" stroke-width="4"></path><path stroke="#000000" stroke-linecap="round" stroke-linejoin="round" d="M2.5 58.127500000000005h55" stroke-width="4"></path><path stroke="#000000" stroke-linecap="round" stroke-linejoin="round" d="M23.125 58.127500000000005V45c0 -1.9889999999999999 0.7901750000000001 -3.89675 2.19675 -5.30325C26.72825 38.29025 28.636 37.5 30.625 37.5c1.9889999999999999 0 3.89675 0.79025 5.30325 2.19675 1.4064999999999999 1.4064999999999999 2.19675 3.3142500000000004 2.19675 5.30325v13.125" stroke-width="4"></path></svg>