<svg xmlns="http://www.w3.org/2000/svg" fill="none" viewBox="0 0 64 64" height="64" width="64" id="Handyman--Streamline-Sharp----Material-Symbols.svg">
  <path fill="#000" d="M50.93333333333334 58.666666666666664C50.666666666666664 58.666666666666664 50.42226666666666 58.62226666666667 50.199999999999996 58.53333333333333C49.97773333333333 58.4444 49.755599999999994 58.28893333333333 49.53333333333333 58.06666666666666L33.4 41.93333333333333C33.17773333333333 41.71106666666667 33.02226666666667 41.488933333333335 32.93333333333333 41.266666666666666C32.84439999999999 41.044399999999996 32.8 40.8 32.8 40.53333333333333C32.8 40.266666666666666 32.84439999999999 40.02226666666667 32.93333333333333 39.8C33.02226666666667 39.57773333333333 33.17773333333333 39.355599999999995 33.4 39.13333333333333L39.06666666666666 33.46666666666667C39.28893333333333 33.2444 39.511066666666665 33.08893333333333 39.733333333333334 33C39.9556 32.91106666666666 40.199999999999996 32.86666666666666 40.46666666666667 32.86666666666666C40.733333333333334 32.86666666666666 40.97773333333333 32.91106666666666 41.199999999999996 33C41.422266666666665 33.08893333333333 41.6444 33.2444 41.86666666666666 33.46666666666667L58 49.6C58.22226666666666 49.822266666666664 58.377733333333325 50.044399999999996 58.46666666666667 50.266666666666666C58.5556 50.488933333333335 58.6 50.73333333333333 58.6 51C58.6 51.266666666666666 58.5556 51.511066666666665 58.46666666666667 51.73333333333333C58.377733333333325 51.955600000000004 58.22226666666666 52.17773333333333 58 52.39999999999999L52.33333333333333 58.06666666666666C52.111066666666666 58.28893333333333 51.88893333333333 58.4444 51.666666666666664 58.53333333333333C51.4444 58.62226666666667 51.199999999999996 58.666666666666664 50.93333333333334 58.666666666666664ZM50.93333333333334 53.86666666666666L53.8 51L40.46666666666667 37.666666666666664L37.599999999999994 40.53333333333333L50.93333333333334 53.86666666666666ZM13 58.666666666666664C12.733333333333334 58.666666666666664 12.477773333333333 58.62226666666667 12.233333333333334 58.53333333333333C11.988893333333332 58.4444 11.75556 58.28893333333333 11.533333333333333 58.06666666666666L5.933333333333334 52.46666666666667C5.711106666666667 52.2444 5.55556 52.011066666666665 5.466666666666666 51.766666666666666C5.377773333333334 51.52226666666667 5.333333333333333 51.266666666666666 5.333333333333333 51C5.333333333333333 50.73333333333333 5.377773333333334 50.488933333333335 5.466666666666666 50.266666666666666C5.55556 50.044399999999996 5.711106666666667 49.822266666666664 5.933333333333334 49.6L20.93333333333333 34.599999999999994H26.599999999999998L29.133333333333333 32.06666666666666L17.466666666666665 20.4H13.666666666666666L5.333333333333333 12.066666666666666L11.933333333333332 5.466666666666666L20.266666666666666 13.799999999999999V17.599999999999998L31.93333333333333 29.266666666666666L40.599999999999994 20.599999999999998L36.13333333333333 16.133333333333333L39.86666666666666 12.4H32.33333333333333L31.133333333333333 11.2L39.666666666666664 2.6666666666666665L40.86666666666666 3.8666666666666663V11.4L44.6 7.666666666666666L55.86666666666666 18.93333333333333C56.53333333333333 19.599999999999998 57.0556 20.366666666666667 57.43333333333334 21.233333333333334C57.81106666666666 22.099999999999998 58 23.022266666666667 58 24C58 24.88893333333333 57.855599999999995 25.7444 57.56666666666666 26.566666666666666C57.27773333333333 27.38893333333333 56.86666666666666 28.133333333333333 56.33333333333333 28.8L50.666666666666664 23.133333333333333L46.93333333333334 26.866666666666664L43.46666666666667 23.4L29.4 37.46666666666667V43.06666666666666L14.4 58.06666666666666C14.177733333333332 58.28893333333333 13.955599999999999 58.4444 13.733333333333334 58.53333333333333C13.511066666666666 58.62226666666667 13.266666666666666 58.666666666666664 13 58.666666666666664ZM13 53.86666666666666L26.333333333333332 40.53333333333333V37.666666666666664H23.46666666666667L10.133333333333333 51L13 53.86666666666666ZM13 53.86666666666666L10.133333333333333 51L11.599999999999998 52.39999999999999L13 53.86666666666666Z" stroke-width="1"></path>
</svg>