<svg xmlns="http://www.w3.org/2000/svg" fill="none" viewBox="-2 -2 64 64" id="Microchip-Board--Streamline-Ultimate.svg" height="64" width="64"><desc>Microchip Board Streamline Icon: https://streamlinehq.com</desc><path stroke="#000000" stroke-linecap="round" stroke-linejoin="round" d="M46.875 1.875v3.75h-11.25V1.875H9.375c-1.989125 0 -3.896775 0.7901750000000001 -5.3033 2.1967C2.665175 5.478225 1.875 7.3858749999999995 1.875 9.375V37.5h3.75v7.5H1.875v5.625c0 1.9889999999999999 0.7901750000000001 3.89675 2.1967 5.30325 1.4065250000000002 1.4064999999999999 3.3141749999999996 2.19675 5.3033 2.19675h41.25c1.9889999999999999 0 3.89675 -0.79025 5.30325 -2.19675 1.4064999999999999 -1.4064999999999999 2.19675 -3.3142500000000004 2.19675 -5.30325V9.375c0 -1.989125 -0.79025 -3.896775 -2.19675 -5.3033C54.521750000000004 2.665175 52.614000000000004 1.875 50.625 1.875h-3.75Z" stroke-width="4"></path><path stroke="#000000" stroke-linecap="round" stroke-linejoin="round" d="M46.875 37.5H52.5" stroke-width="4"></path><path stroke="#000000" stroke-linecap="round" stroke-linejoin="round" d="M46.875 30H52.5" stroke-width="4"></path><path stroke="#000000" stroke-linecap="round" stroke-linejoin="round" d="M18.75 37.5h5.625" stroke-width="4"></path><path stroke="#000000" stroke-linecap="round" stroke-linejoin="round" d="M18.75 30h5.625" stroke-width="4"></path><path stroke="#000000" stroke-linecap="round" stroke-linejoin="round" d="M39.375 45v5.625" stroke-width="4"></path><path stroke="#000000" stroke-linecap="round" stroke-linejoin="round" d="M31.875 45v5.625" stroke-width="4"></path><path stroke="#000000" stroke-linecap="round" stroke-linejoin="round" d="M39.375 16.875V22.5" stroke-width="4"></path><path stroke="#000000" stroke-linecap="round" stroke-linejoin="round" d="M31.875 16.875V22.5" stroke-width="4"></path><path stroke="#000000" stroke-linecap="round" stroke-linejoin="round" d="M24.375 22.5h22.5v22.5h-22.5V22.5Z" stroke-width="4"></path><path stroke="#000000" stroke-linecap="round" stroke-linejoin="round" d="M9.375 9.375v7.5" stroke-width="4"></path><path stroke="#000000" stroke-linecap="round" stroke-linejoin="round" d="M16.875 9.375v7.5" stroke-width="4"></path></svg>