<svg xmlns="http://www.w3.org/2000/svg" fill="none" viewBox="0 0 64 64" height="64" width="64" id="Nest-Remote-Comfort-Sensor--Streamline-Sharp----Material-Symbols.svg">
  <path fill="#000" d="M32 56C29.199999999999996 56 26.833333333333332 55.03333333333333 24.9 53.1C22.96666666666667 51.166666666666664 22 48.8 22 46C22 43.199999999999996 22.96666666666667 40.83333333333333 24.9 38.9C26.833333333333332 36.96666666666667 29.199999999999996 36 32 36C34.8 36 37.166666666666664 36.96666666666667 39.099999999999994 38.9C41.03333333333333 40.83333333333333 42 43.199999999999996 42 46C42 48.8 41.03333333333333 51.166666666666664 39.099999999999994 53.1C37.166666666666664 55.03333333333333 34.8 56 32 56ZM32 52C33.68893333333333 52 35.1112 51.42226666666666 36.266666666666666 50.266666666666666C37.422266666666665 49.111066666666666 38 47.68893333333333 38 46C38 44.31106666666666 37.422266666666665 42.88893333333333 36.266666666666666 41.733333333333334C35.1112 40.57773333333333 33.68893333333333 40 32 40C30.3112 40 28.88893333333333 40.57773333333333 27.733333333333334 41.733333333333334C26.577866666666665 42.88893333333333 26 44.31106666666666 26 46C26 47.68893333333333 26.577866666666665 49.111066666666666 27.733333333333334 50.266666666666666C28.88893333333333 51.42226666666666 30.3112 52 32 52ZM8.13336 21.333333333333332L5.200026666666666 18.599999999999998C8.755586666666666 15.222266666666666 12.800026666666668 12.611106666666666 17.333333333333332 10.766666666666666C21.866666666666664 8.922226666666667 26.7556 8 32 8C37.24453333333333 8 42.13333333333333 8.922226666666667 46.666666666666664 10.766666666666666C51.199999999999996 12.611106666666666 55.24453333333333 15.222266666666666 58.8 18.599999999999998L55.86666666666666 21.333333333333332C52.666666666666664 18.3556 49.06666666666666 16.0556 45.06666666666666 14.433333333333332C41.06666666666666 12.811106666666667 36.7112 12 32 12C27.288933333333333 12 22.93333333333333 12.811106666666667 18.93333333333333 14.433333333333332C14.933333333333332 16.0556 11.333359999999999 18.3556 8.13336 21.333333333333332ZM46.13333333333333 31.199999999999996C44.22226666666666 29.599999999999998 42.06666666666666 28.333333333333332 39.666666666666664 27.4C37.266666666666666 26.46666666666667 34.7112 26 32 26C29.288933333333333 26 26.74453333333333 26.46666666666667 24.366666666666664 27.4C21.988933333333335 28.333333333333332 19.822266666666664 29.599999999999998 17.866666666666667 31.199999999999996L14.933333333333332 28.4C17.2 26.4 19.799999999999997 24.833333333333332 22.733333333333334 23.699999999999996C25.666666666666664 22.566666666666666 28.7556 22 32 22C35.24453333333333 22 38.322266666666664 22.566666666666666 41.233333333333334 23.699999999999996C44.144533333333335 24.833333333333332 46.73333333333333 26.4 49 28.4L46.13333333333333 31.199999999999996Z" stroke-width="1"></path>
</svg>