<svg xmlns="http://www.w3.org/2000/svg" fill="none" viewBox="0 0 64 64" height="64" width="64" id="Tools-Pliers-Wire-Stripper--Streamline-Rounded----Material-Symbols.svg">
  <path fill="#000" d="M18.733066666666666 61.199999999999996C17.977466666666665 59.5556 17.4108 57.52226666666667 17.033066666666667 55.1C16.65533333333333 52.67773333333333 16.444133333333333 50.044399999999996 16.39973333333333 47.199999999999996C16.39973333333333 43.28893333333333 16.8108 39.855599999999995 17.633066666666664 36.9C18.455333333333332 33.9444 19.688666666666666 31.422266666666665 21.333066666666667 29.333333333333332V16L29.333066666666667 2.6666666666666665H34.666399999999996L42.666399999999996 16V29.333333333333332C44.355333333333334 31.422266666666665 45.59973333333333 33.922266666666665 46.39973333333333 36.83333333333333C47.19973333333333 39.7444 47.59973333333333 43.08893333333333 47.59973333333333 46.86666666666666C47.59973333333333 49.62226666666667 47.39973333333333 52.255599999999994 46.99973333333333 54.766666666666666C46.59973333333333 57.27773333333333 46.022 59.42226666666666 45.266400000000004 61.199999999999996C43.71079999999999 60.577733333333335 42.43306666666666 59.53333333333333 41.43306666666666 58.06666666666666C40.43306666666666 56.6 39.910799999999995 55.02226666666667 39.8664 53.33333333333333C39.821999999999996 52.08893333333333 39.98866666666666 50.81106666666666 40.3664 49.5C40.74413333333333 48.18893333333333 40.93306666666666 46.6444 40.93306666666666 44.86666666666666C40.93306666666666 42.28893333333333 40.24413333333333 39.699999999999996 38.8664 37.099999999999994C37.48866666666666 34.5 35.19973333333333 32.355599999999995 31.99973333333333 30.666666666666664C28.844133333333332 32.355599999999995 26.5664 34.5 25.1664 37.099999999999994C23.766399999999997 39.699999999999996 23.0664 42.31106666666666 23.0664 44.93333333333334C23.0664 46.62226666666667 23.255333333333333 48.13333333333333 23.633066666666664 49.46666666666667C24.010799999999996 50.8 24.19973333333333 52.06666666666666 24.19973333333333 53.266666666666666C24.19973333333333 55 23.677466666666664 56.63333333333333 22.633066666666664 58.166666666666664C21.58866666666667 59.699999999999996 20.288666666666664 60.71106666666666 18.733066666666666 61.199999999999996ZM31.99973333333333 21.333333333333332C31.24413333333333 21.333333333333332 30.6108 21.07773333333333 30.099733333333333 20.566666666666666C29.58866666666667 20.0556 29.333066666666667 19.422266666666665 29.333066666666667 18.666666666666664C29.333066666666667 18.177733333333332 29.455333333333332 17.733333333333334 29.69973333333333 17.333333333333332C29.944133333333333 16.93333333333333 30.266399999999997 16.622266666666665 30.6664 16.4V8.2L25.333066666666667 17.066666666666666V25.333333333333332H38.666399999999996V17.066666666666666L33.33306666666667 8.2V16.4C33.77746666666667 16.622266666666665 34.1108 16.93333333333333 34.33306666666667 17.333333333333332C34.55533333333333 17.733333333333334 34.666399999999996 18.177733333333332 34.666399999999996 18.666666666666664C34.666399999999996 19.422266666666665 34.410799999999995 20.0556 33.89973333333333 20.566666666666666C33.388666666666666 21.07773333333333 32.75533333333333 21.333333333333332 31.99973333333333 21.333333333333332Z" stroke-width="1"></path>
</svg>