<svg xmlns="http://www.w3.org/2000/svg" viewBox="0 0 24 24" version="1.1" id="Wrench-Screwdriver--Streamline-Heroicons-Outline.svg">
	<path d="M17.556 0.329016C15.700800000000001 0.43128 13.958927999999998 1.46676 12.95496 3.0641040000000004C12.614232 3.6062399999999997 12.337584000000001 4.293408 12.207792000000001 4.92C12.113520000000001 5.375208000000001 12.10932 5.445984 12.10776 6.612C12.106272 7.703328 12.103463999999999 7.776 12.054312 7.992C12.025776 8.1174 11.976431999999999 8.2956 11.944632 8.388C11.879376 8.577744000000001 11.744376 8.856 11.717592 8.856C11.707872 8.856 10.800816 7.956864 9.701952 6.857952L7.704 4.859904 7.704 4.137768L7.704 3.415656 7.630871999999999 3.2693280000000002C7.590648 3.188856 7.521288 3.090984 7.476719999999999 3.051864C7.3821840000000005 2.968848 3.1963440000000003 0.452448 3.031536 0.37956C2.8809839999999998 0.31295999999999996 2.582712 0.326088 2.424 0.406296C2.350512 0.443424 2.019192 0.757224 1.3870559999999998 1.388424C0.632784 2.141592 0.44822399999999996 2.338488 0.405456 2.435616C0.335472 2.594544 0.318336 2.841408 0.367296 2.9851199999999998C0.4206 3.141552 2.970384 7.384608 3.073848 7.489056C3.1210560000000003 7.536696 3.212856 7.601856000000001 3.277848 7.633848C3.393984 7.691016 3.408528 7.69212 4.128 7.698696L4.86 7.705392 6.75 9.594648C7.789488 10.633728 8.64 11.491632 8.64 11.501112000000001C8.64 11.510616 7.049712 12.827231999999999 5.106 14.426976000000002C2.981376 16.175591999999998 1.4805840000000001 17.427816 1.3428 17.566896C0.876672 18.037344 0.560328 18.632304 0.402216 19.335888C0.330144 19.656624 0.324216 20.444448 0.39148800000000006 20.76C0.523656 21.379872 0.82728 21.999768000000003 1.214304 22.44C1.7411040000000002 23.039232 2.418504 23.429568 3.24 23.607288C3.53532 23.671176 4.338384 23.670816 4.644 23.606640000000002C5.290152 23.470992 5.904984 23.155224 6.377136 22.7166C6.502608 22.600032000000002 7.417848 21.508776 8.967576 19.627992C10.285608 18.028392 11.3718 16.708008 11.381328 16.693824C11.391576 16.678512 12.638208 17.905632 14.441328 19.705896C16.114800000000002 21.376728 17.554199999999998 22.798248 17.64 22.864800000000002C18.365832 23.42796 19.187160000000002 23.694192 20.085624 23.65752C21.845664 23.585664 23.261664 22.358448 23.608776 20.604C23.675064000000003 20.26896 23.66844 19.560192 23.595792 19.21812C23.472744 18.638616000000003 23.278848 18.20376 22.924224000000002 17.712C22.838736 17.593439999999998 21.831504 16.568064 19.973784 14.708328L17.153136 11.884656000000001 17.690568 11.897447999999999C18.260976 11.911007999999999 18.565416 11.889624000000001 19.004352 11.805144C20.386752 11.539128000000002 21.639192 10.751496 22.497216 9.608568C23.125992 8.77104 23.48712 7.894608000000001 23.632728 6.852816C23.678688 6.523992000000001 23.683848 5.7600240000000005 23.642232 5.448C23.545176 4.720416 23.264448 3.8353919999999997 23.041392000000002 3.5537520000000002C22.949160000000003 3.437304 22.717224 3.316992 22.545792000000002 3.296688C22.406832 3.2802239999999996 22.18536 3.3345119999999997 22.068528 3.413664C22.02864 3.4406879999999997 21.229032 4.228224 20.291591999999998 5.1637200000000005L18.587208 6.8646720000000006 18.376896 6.75912C17.89488 6.517200000000001 17.482488 6.104544 17.240064 5.6214960000000005L17.135424 5.4130080000000005 18.848208 3.6965039999999996C19.790232 2.75244 20.583072 1.9422 20.610048 1.8960000000000001C20.720544 1.7068800000000002 20.731608 1.443456 20.638128000000002 1.22808C20.533272 0.986568 20.40048 0.88704 19.945464 0.708936C19.19892 0.41675999999999996 18.366192 0.28435200000000005 17.556 0.329016M17.424 1.848864C16.894248 1.913928 16.452192 2.048568 15.968328 2.292168C15.548976000000001 2.503272 15.271272 2.696712 14.935104 3.011856C14.252352 3.6519359999999996 13.81428 4.46484 13.654584000000002 5.388C13.608024 5.657112 13.601832000000002 5.7643200000000006 13.609512 6.168C13.62924 7.202400000000001 13.619064 7.754208 13.575287999999999 8.028C13.426224000000001 8.960064000000001 13.086048 9.689256 12.551616000000001 10.22232C12.464664 10.309032 10.168752 12.212208 7.449599999999999 14.451576000000001C4.730424 16.690944000000002 2.4438239999999998 18.589944 2.3682480000000004 18.671568C2.096304 18.965304 1.9025280000000002 19.398816 1.847784 19.836000000000002C1.7723760000000002 20.438256000000003 2.013648 21.123432 2.4524640000000004 21.553128C2.8697280000000003 21.961728 3.3523440000000004 22.156896 3.948 22.157904C4.482480000000001 22.158816 4.946856 21.980040000000002 5.336352000000001 21.6234C5.413536 21.55272 7.308936 19.26948 9.548352000000001 16.549560000000003C11.787768 13.829616000000001 13.691184 11.532624 13.778160000000002 11.44512C14.30892 10.91124 15.055152 10.565808 15.984 10.424088C16.265352 10.381176 16.748664 10.371936 17.856 10.388328C18.240648 10.394016 18.373152 10.386624000000001 18.6 10.346832000000001C19.274616 10.228463999999999 19.883688 9.970488000000001 20.424 9.574224C20.695584 9.375048 21.165432000000003 8.896224 21.365280000000002 8.614968C21.682728 8.168208 21.950328 7.571856000000001 22.064808 7.056C22.172928 6.568872 22.202688 5.949144 22.136664 5.5599359999999995L22.12104 5.467872 20.678520000000002 6.906216000000001C19.549536 8.031936 19.211424 8.355744 19.122936 8.395968C18.946464000000002 8.476175999999999 18.787464 8.484744000000001 18.55968 8.426256C17.076192000000002 8.045328 15.954672 6.923808 15.573744 5.440320000000001C15.515256 5.212536 15.523824000000001 5.053536 15.604032 4.877064000000001C15.644256000000002 4.788576 15.968136000000001 4.450368 17.094168 3.321096L18.53292 1.878168 18.452448 1.8637679999999999C18.30168 1.836792 17.604552 1.8266879999999999 17.424 1.848864M2.449392 2.458608L2.0313120000000002 2.877216 3.03204 4.545264L4.032744 6.213311999999999 4.722384 6.220656000000001C5.392440000000001 6.227784 5.415071999999999 6.229608000000001 5.5200000000000005 6.284400000000001C5.594256 6.323184 6.2844240000000005 6.996384000000001 7.728624000000001 8.438712L9.829248000000002 10.5366 10.21776 10.218312L10.606296 9.9 8.476032 7.764C6.802416000000001 6.085896 6.333144 5.602272 6.286872 5.508C6.229608000000001 5.391264 6.227664 5.369376 6.216 4.705248L6.204 4.0224720000000005 4.552128 3.031248C3.6436080000000004 2.486064 2.892888 2.04 2.8838880000000002 2.04C2.874864 2.04 2.679336 2.2283760000000004 2.449392 2.458608M15.154704 12.266712C15.089424000000001 12.307800000000002 14.989608 12.379128000000001 14.932920000000001 12.425208C14.8326 12.50676 12.384 15.458015999999999 12.384 15.4974C12.384 15.508248 13.785312000000001 16.915896 15.498000000000001 18.625488C18.380424 21.502704 18.625872 21.741576000000002 18.79848 21.837912C19.18788 22.055208 19.436376000000003 22.127784 19.851 22.145328C20.175264 22.159056 20.385024 22.129008000000002 20.676000000000002 22.027152C21.427632 21.76404 21.9648 21.139656 22.117176 20.352C22.161792000000002 20.121384 22.161792000000002 19.729176 22.1172 19.519560000000002C22.05408 19.222968 21.92676 18.919512 21.76152 18.672C21.680544 18.55068 15.339 12.192 15.298992 12.192C15.284927999999999 12.192 15.219984000000002 12.225624 15.154704 12.266712M16.075224000000002 15.459096C15.931704000000002 15.480192 15.73788 15.585287999999998 15.642768000000002 15.693624C15.602112 15.739920000000001 15.54216 15.836112 15.509544 15.907344000000002C15.457775999999999 16.020456 15.451608 16.061736 15.460968 16.232447999999998C15.468623999999998 16.371624 15.487416 16.459128 15.526176 16.536C15.564504 16.61196 16.040832 17.104560000000003 17.132328 18.196968000000002C18.521568 19.58736 18.698952000000002 19.756752 18.826895999999998 19.814976C19.206 19.987512 19.640616 19.823496000000002 19.820496000000002 19.44C19.870392 19.33368 19.8822 19.272984 19.881263999999998 19.128C19.879176 18.80016 19.949952000000003 18.884352 18.223032 17.155704C17.134296 16.065912 16.637256 15.584376 16.554744 15.539448C16.419408 15.465792 16.237344 15.435287999999998 16.075224000000002 15.459096M3.8160000000000003 19.24644C3.615984 19.307496 3.4342080000000004 19.461552 3.332712 19.656C3.28572 19.746048 3.27636 19.799904 3.2763839999999997 19.98C3.2764320000000002 20.167224 3.2849280000000003 20.212128 3.34008 20.316959999999998C3.471432 20.566704 3.74616 20.736 4.0200000000000005 20.736C4.297968 20.736 4.571904 20.5632 4.696656 20.309136000000002C4.753416 20.193576 4.764 20.141808 4.764 19.98C4.764 19.818192 4.753416 19.766424 4.696656 19.650864C4.569648 19.392192 4.295448 19.221816 4.013088 19.226064C3.937704 19.227192000000002 3.849 19.23636 3.8160000000000003 19.24644" stroke="none" fill="#000" fill-rule="evenodd"></path>
</svg>