<svg xmlns="http://www.w3.org/2000/svg" fill="none" viewBox="-0.5 -0.5 24 24" id="Facebook--Streamline-Svg-Logos.svg" height="24" width="24"><desc>Facebook Streamline Icon: https://streamlinehq.com</desc><path fill="#1877F2" d="M22.760416666666668 11.5C22.760416666666668 5.2810395833333335 17.71896041666667 0.23958333333333334 11.5 0.23958333333333334S0.23958333333333334 5.2810395833333335 0.23958333333333334 11.5c0 5.620409375 4.117766666666667 10.278867708333335 9.500964583333333 11.123614583333334V14.754955208333335H6.8814802083333335V11.5h2.8590677083333333V9.019186458333333c0 -2.8221479166666668 1.6811083333333334 -4.380996875 4.253227083333334 -4.380996875 1.2319854166666666 0 2.520632291666667 0.21991354166666668 2.520632291666667 0.21991354166666668v2.771140625h-1.4199145833333333c-1.39883125 0 -1.835040625 0.8679864583333333 -1.835040625 1.7584937500000002V11.5h3.1229927083333333l-0.49924375000000004 3.2549552083333335H13.259452083333334V22.623614583333335C18.64265 21.778867708333333 22.760416666666668 17.120409375 22.760416666666668 11.5Z" stroke-width="1"></path><path fill="#fff" d="M15.883201041666668 14.754955208333335 16.382444791666668 11.5H13.259452083333334v-2.1122625c0 -0.8905072916666666 0.436209375 -1.7584937500000002 1.835040625 -1.7584937500000002h1.4199145833333333V4.858103125s-1.2886468750000002 -0.21991354166666668 -2.520632291666667 -0.21991354166666668c-2.57211875 0 -4.253227083333334 1.5588489583333334 -4.253227083333334 4.380996875V11.5H6.8814802083333335v3.2549552083333335h2.8590677083333333V22.623614583333335C10.313846875000001 22.713578125 10.901448958333333 22.760416666666668 11.5 22.760416666666668c0.5985510416666667 0 1.186153125 -0.04683854166666667 1.7594520833333334 -0.13680208333333332V14.754955208333335h2.6237489583333335Z" stroke-width="1"></path></svg>