<svg viewBox="-0.5 -0.5 16 16" fill="none" xmlns="http://www.w3.org/2000/svg" id="Phone-Volume--Streamline-Unicons.svg" height="16" width="16"><desc>Phone Volume Streamline Icon: https://streamlinehq.com</desc><path d="M12.952562499999999 8.262125000000001c-0.16181250000000003 0 -0.33099999999999996 -0.0514375 -0.49275 -0.08825 -0.32743750000000005 -0.0731875 -0.6493749999999999 -0.1690625 -0.9634375000000001 -0.28681249999999997 -0.34118750000000003 -0.124125 -0.7163124999999999 -0.1176875 -1.053 0.0180625 -0.3366875 0.1358125 -0.61125 0.3913125 -0.7709375 0.717375l-0.16181250000000003 0.3383125c-0.71425 -0.4050625 -1.3741249999999998 -0.899375 -1.963625 -1.4708750000000002 -0.5716249999999999 -0.5895625 -1.0658125 -1.2493750000000001 -1.4709375 -1.9636875l0.3383125 -0.1544375c0.326125 -0.15962500000000002 0.581625 -0.43424999999999997 0.717375 -0.771 0.13575 -0.3366875 0.14225 -0.71175 0.0180625 -1.0529375 -0.11674999999999999 -0.3169375 -0.212625 -0.64125 -0.28681249999999997 -0.97075 -0.03675 -0.16181250000000003 -0.0661875 -0.33099999999999996 -0.08825 -0.49275 -0.0893125 -0.5180625 -0.36068749999999994 -0.9871874999999999 -0.7651874999999999 -1.3229374999999999C5.6050625 0.42575 5.093999999999999 0.2454375 4.568375 0.25306249999999997H2.3546875C2.04375 0.2526875 1.73625 0.318 1.452375 0.44475c-0.2839375 0.12675 -0.5378125 0.3120625 -0.7451249999999999 0.54375 -0.21156250000000001 0.2380625 -0.36912500000000004 0.5190625 -0.46175 0.82375 -0.09268749999999999 0.3046875 -0.1183125 0.6258125000000001 -0.075125 0.941375 0.3998125 3.0610625000000002 1.798375 5.9046875 3.9788125 8.0899375 2.18525 2.1804375 5.0289375000000005 3.5789999999999997 8.0899375 3.9788125 0.0955 0.0072499999999999995 0.19137500000000002 0.0072499999999999995 0.286875 0 0.5423125 0.0008125 1.0659375 -0.19824999999999998 1.4708750000000002 -0.5589375 0.23175 -0.20725 0.4170625 -0.46125 0.5438125 -0.7451249999999999 0.1266875 -0.283875 0.19199999999999998 -0.591375 0.191625 -0.9023125v-2.206375c-0.0039375 -0.5081875 -0.18325000000000002 -0.999375 -0.5075000000000001 -1.390625 -0.3243125 -0.39125 -0.7737499999999999 -0.658625 -1.2723125 -0.7568750000000001Zm0.36031250000000004 4.41275c-0.00018749999999999998 0.1025625 -0.0219375 0.2040625 -0.06375 0.29775 -0.041749999999999995 0.09375 -0.10275 0.1776875 -0.1789375 0.24643749999999998 -0.0805625 0.0735 -0.1765 0.1280625 -0.280875 0.1598125 -0.10425000000000001 0.031875 -0.2143125 0.04 -0.32218749999999996 0.0240625 -2.7445000000000004 -0.3584375 -5.295062499999999 -1.6091875 -7.258875 -3.5595624999999997 -1.9655624999999999 -1.9655 -3.2271875 -4.525 -3.589 -7.281 -0.016 -0.107875 -0.0078125 -0.2179375 0.023999999999999997 -0.32218749999999996 0.0318125 -0.1043125 0.086375 -0.20025 0.1598125 -0.280875 0.06962499999999999 -0.077125 0.15475 -0.1385625 0.2498125 -0.1804375 0.09506250000000001 -0.0418125 0.1979375 -0.06306250000000001 0.3018125 -0.06225h2.2063125c0.1700625 -0.004125 0.33625000000000005 0.050749999999999997 0.47031249999999997 0.1553125 0.134125 0.104625 0.2278125 0.2524375 0.2651875 0.4183125 0 0.19862500000000002 0.0661875 0.40449999999999997 0.1103125 0.603125 0.085 0.38525 0.1980625 0.7638125 0.3383125 1.1325625000000001l-1.029625 0.485375c-0.177 0.08125 -0.3145 0.229375 -0.3824375 0.411875 -0.0735625 0.17906249999999999 -0.0735625 0.379875 0 0.5589375 1.0584375 2.26725 2.880875 4.0896875 5.148125 5.1481875 0.179 0.0735 0.379875 0.0735 0.5589375 0 0.1825 -0.06799999999999999 0.330625 -0.2055 0.411875 -0.3824375l0.46331249999999996 -1.029625c0.3794375 0.1383125 0.767625 0.251375 1.162 0.33825 0.19125 0.044125 0.39718749999999997 0.0809375 0.59575 0.110375 0.16593750000000002 0.0373125 0.31375 0.131 0.4183125 0.265125s0.1594375 0.30025 0.1553125 0.47031249999999997l0.0661875 2.2725ZM8.97375 0.17218750000000002h-0.5148125c-0.1950625 0.0165625 -0.3755 0.1099375 -0.5017499999999999 0.259625 -0.1261875 0.149625 -0.1878125 0.34325 -0.1711875 0.5383125 0.0165625 0.1950625 0.1099375 0.3755625 0.259625 0.5017499999999999 0.149625 0.1261875 0.3433125 0.18775 0.5383125 0.1711875h0.3898125c1.1703125 0 2.2926875 0.4649375 3.12025 1.2924375 0.8275 0.8275625 1.2924375 1.9499374999999999 1.2924375 3.1203125v0.38975000000000004c-0.0163125 0.194 0.045 0.38656250000000003 0.1704375 0.5355 0.12543749999999998 0.1489375 0.30481250000000004 0.2419375 0.4988125 0.2588125h0.058875000000000004c0.1840625 0.0007499999999999999 0.36175 -0.067625 0.4979375 -0.1915 0.13618750000000002 -0.1239375 0.22093749999999998 -0.2944375 0.2375 -0.47775v-0.5148125c0 -1.5591875 -0.618875 -3.0545625 -1.7206875 -4.15775C12.0275625 0.794875 10.532874999999999 0.174125 8.97375 0.17218750000000002Zm1.4708750000000002 5.883625c0 0.195 0.07743749999999999 0.38212500000000005 0.2154375 0.52 0.137875 0.1379375 0.325 0.2154375 0.5200625 0.2154375 0.195 0 0.38212500000000005 -0.0775625 0.52 -0.2154375s0.2154375 -0.325 0.2154375 -0.52c0 -0.78025 -0.3099375 -1.5285000000000002 -0.8616875 -2.0801875 -0.551625 -0.5516875 -1.2998750000000001 -0.8616250000000001 -2.080125 -0.8616250000000001 -0.1950625 0 -0.38212500000000005 0.0775 -0.5200625 0.215375 -0.1379375 0.1379375 -0.215375 0.325 -0.215375 0.5200625s0.07743749999999999 0.38212500000000005 0.215375 0.5200625c0.1379375 0.137875 0.325 0.215375 0.5200625 0.215375 0.3900625 0 0.7641874999999999 0.155 1.0400625 0.43081250000000004 0.275875 0.275875 0.43081250000000004 0.65 0.43081250000000004 1.040125Z" fill="#000000" stroke-width="1"></path></svg>