<svg viewBox="-0.5 -0.5 16 16" fill="none" xmlns="http://www.w3.org/2000/svg" id="Whatsapp--Streamline-Unicons.svg" height="16" width="16"><desc>Whatsapp Streamline Icon: https://streamlinehq.com</desc><path d="M10.911187499999999 8.9773125c-0.1468125 -0.073375 -1.1011250000000001 -0.5138125 -1.2479375 -0.58725 -0.1468125 -0.073375 -0.293625 -0.073375 -0.4404375 0.07343749999999999s-0.4405 0.58725 -0.5873125 0.7340625000000001c-0.073375 0.1468125 -0.2201875 0.1468125 -0.36700000000000005 0.073375 -0.5138750000000001 -0.2201875 -1.0277500000000002 -0.5138125 -1.4681875 -0.880875 -0.3670625 -0.3670625 -0.7340625000000001 -0.8075 -1.0276875 -1.2479375 -0.07343749999999999 -0.1468125 0 -0.293625 0.073375 -0.3670625 0.07343749999999999 -0.073375 0.1468125 -0.2201875 0.293625 -0.293625 0.07343749999999999 -0.073375 0.1468125 -0.2201875 0.1468125 -0.293625 0.07343749999999999 -0.073375 0.07343749999999999 -0.2201875 0 -0.293625 -0.073375 -0.073375 -0.4404375 -0.9543124999999999 -0.58725 -1.321375 -0.073375 -0.5138125 -0.22025 -0.5138125 -0.3670625 -0.5138125h-0.36700000000000005c-0.1468125 0 -0.3670625 0.1468125 -0.4405 0.2201875 -0.4404375 0.4405 -0.660625 0.9543124999999999 -0.660625 1.541625 0.073375 0.660625 0.293625 1.3213125000000001 0.7340625000000001 1.9085625 0.8075 1.1745625 1.8351875 2.128875 3.083125 2.716125 0.3670625 0.1468125 0.6606875 0.293625 1.0277500000000002 0.3670625 0.36700000000000005 0.1468125 0.7340625000000001 0.1468125 1.1745 0.073375 0.5138750000000001 -0.073375 0.9543124999999999 -0.4404375 1.2479375 -0.880875 0.1468125 -0.293625 0.1468125 -0.58725 0.07343749999999999 -0.8809374999999999l-0.293625 -0.1468125Zm1.8351875 -6.680125c-2.8629375 -2.8629375 -7.4876249999999995 -2.8629375 -10.3505625 0C0.04675 4.64625 -0.3936875 8.24325 1.2213125 11.1061875L0.19356249999999997 14.850000000000001l3.890625 -1.0276875c1.1011250000000001 0.58725 2.2756875 0.880875 3.4501874999999997 0.880875 4.0375 0 7.2674375 -3.2299375 7.2674375 -7.2674375 0.07343749999999999 -1.9086249999999998 -0.7340625000000001 -3.7438124999999998 -2.0554375 -5.1385625ZM10.764375 12.574375c-0.9543124999999999 0.58725 -2.0554375 0.9542499999999999 -3.23 0.9542499999999999 -1.1011250000000001 0 -2.1288125 -0.293625 -3.083125 -0.8074375l-0.22025 -0.14687499999999998 -2.275625 0.5873125 0.58725 -2.2022500000000003 -0.1468125 -0.22025C0.634 7.8028125 1.5149375 4.132375 4.3778749999999995 2.2971875 7.24075 0.46199999999999997 10.911187499999999 1.4163124999999999 12.673000000000002 4.2058125c1.76175 2.862875 0.9543124999999999 6.60675 -1.9086249999999998 8.3685Z" fill="#000000" stroke-width="1"></path></svg>